<svg width="46" height="33" viewBox="0 0 46 33" fill="none" xmlns="http://www.w3.org/2000/svg">
<path d="M27.1666 10.2813C27.1666 9.96879 27.2798 9.64726 27.5062 9.31671C27.7312 8.98754 27.9826 8.77087 28.2603 8.66671C29.2673 8.31948 30.2742 8.05907 31.2812 7.88546C32.2881 7.71185 33.3471 7.62504 34.4583 7.62504C35.1527 7.62504 35.8388 7.6681 36.5166 7.75421C37.193 7.84171 37.861 7.9549 38.5208 8.09379C38.8333 8.16323 39.102 8.33685 39.327 8.61462C39.5534 8.8924 39.6666 9.2049 39.6666 9.55212C39.6666 10.1424 39.4756 10.5764 39.0937 10.8542C38.7117 11.132 38.2256 11.2014 37.6353 11.0625C37.1492 10.9584 36.6374 10.8799 36.0999 10.8271C35.561 10.7757 35.0138 10.75 34.4583 10.75C33.5555 10.75 32.6701 10.8368 31.802 11.0105C30.9339 11.1841 30.1006 11.4098 29.302 11.6875C28.677 11.9306 28.1652 11.9132 27.7666 11.6355C27.3666 11.3577 27.1666 10.9063 27.1666 10.2813ZM27.1666 21.7396C27.1666 21.4271 27.2798 21.1056 27.5062 20.775C27.7312 20.4459 27.9826 20.2292 28.2603 20.125C29.2673 19.7778 30.2742 19.5174 31.2812 19.3438C32.2881 19.1702 33.3471 19.0834 34.4583 19.0834C35.1527 19.0834 35.8388 19.1264 36.5166 19.2125C37.193 19.3 37.861 19.4132 38.5208 19.5521C38.8333 19.6216 39.102 19.7952 39.327 20.073C39.5534 20.3507 39.6666 20.6632 39.6666 21.0105C39.6666 21.6007 39.4756 22.0348 39.0937 22.3125C38.7117 22.5903 38.2256 22.6598 37.6353 22.5209C37.1492 22.4167 36.6374 22.3382 36.0999 22.2855C35.561 22.2341 35.0138 22.2084 34.4583 22.2084C33.5555 22.2084 32.6701 22.2868 31.802 22.4438C30.9339 22.5993 30.1006 22.816 29.302 23.0938C28.677 23.3368 28.1652 23.3278 27.7666 23.0667C27.3666 22.807 27.1666 22.3646 27.1666 21.7396ZM27.1666 16.0105C27.1666 15.698 27.2798 15.3764 27.5062 15.0459C27.7312 14.7167 27.9826 14.5 28.2603 14.3959C29.2673 14.0487 30.2742 13.7882 31.2812 13.6146C32.2881 13.441 33.3471 13.3542 34.4583 13.3542C35.1527 13.3542 35.8388 13.3973 36.5166 13.4834C37.193 13.5709 37.861 13.6841 38.5208 13.823C38.8333 13.8924 39.102 14.066 39.327 14.3438C39.5534 14.6216 39.6666 14.9341 39.6666 15.2813C39.6666 15.8716 39.4756 16.3056 39.0937 16.5834C38.7117 16.8612 38.2256 16.9306 37.6353 16.7917C37.1492 16.6875 36.6374 16.6091 36.0999 16.5563C35.561 16.5049 35.0138 16.4792 34.4583 16.4792C33.5555 16.4792 32.6701 16.566 31.802 16.7396C30.9339 16.9132 30.1006 17.1389 29.302 17.4167C28.677 17.6598 28.1652 17.6424 27.7666 17.3646C27.3666 17.0868 27.1666 16.6355 27.1666 16.0105ZM25.0833 27.5209C26.611 26.7917 28.1478 26.2445 29.6937 25.8792C31.2381 25.5153 32.8263 25.3334 34.4583 25.3334C35.7083 25.3334 36.9326 25.4375 38.1312 25.6459C39.3284 25.8542 40.5346 26.1667 41.7499 26.5834V5.95837C40.6041 5.47226 39.4152 5.10768 38.1833 4.86462C36.9499 4.62157 35.7083 4.50004 34.4583 4.50004C32.8263 4.50004 31.2117 4.70837 29.6145 5.12504C28.0173 5.54171 26.5069 6.16671 25.0833 7.00004V27.5209ZM22.9999 32.573C22.5138 32.573 22.0541 32.5125 21.6208 32.3917C21.186 32.2695 20.7777 32.1042 20.3958 31.8959C19.0416 31.0973 17.618 30.4987 16.1249 30.1C14.6319 29.7 13.1041 29.5 11.5416 29.5C10.0833 29.5 8.65131 29.691 7.24575 30.073C5.83881 30.4549 4.49297 30.9931 3.20825 31.6875C2.47909 32.0695 1.77631 32.0521 1.09992 31.6355C0.422141 31.2188 0.083252 30.6112 0.083252 29.8125V4.70837C0.083252 4.32643 0.179085 3.96185 0.370752 3.61462C0.56103 3.2674 0.847141 3.00698 1.22909 2.83337C2.82631 2.00004 4.49297 1.37504 6.22908 0.958374C7.9652 0.541708 9.73603 0.333374 11.5416 0.333374C13.5555 0.333374 15.5263 0.593791 17.4541 1.11462C19.3805 1.63546 21.2291 2.41671 22.9999 3.45837C24.7708 2.41671 26.6201 1.63546 28.5478 1.11462C30.4742 0.593791 32.4444 0.333374 34.4583 0.333374C36.2638 0.333374 38.0346 0.541708 39.7707 0.958374C41.5069 1.37504 43.1735 2.00004 44.7708 2.83337C45.1527 3.00698 45.4395 3.2674 45.6312 3.61462C45.8214 3.96185 45.9166 4.32643 45.9166 4.70837V29.8125C45.9166 30.6112 45.5784 31.2188 44.902 31.6355C44.2242 32.0521 43.5208 32.0695 42.7916 31.6875C41.5069 30.9931 40.161 30.4549 38.7541 30.073C37.3485 29.691 35.9166 29.5 34.4583 29.5C32.8958 29.5 31.368 29.7 29.8749 30.1C28.3819 30.4987 26.9583 31.0973 25.6041 31.8959C25.2221 32.1042 24.8145 32.2695 24.3812 32.3917C23.9464 32.5125 23.486 32.573 22.9999 32.573Z" fill="#0A9A67"/>
</svg>
