<svg width="46" height="46" viewBox="0 0 46 46" fill="none" xmlns="http://www.w3.org/2000/svg">
<path d="M31.1249 0.083374C23.2083 0.291707 16.7499 6.75004 16.7499 14.6667C16.7499 22.7917 23.2083 29.25 31.3333 29.25C39.4583 29.25 45.9166 22.7917 45.9166 14.6667C45.9166 6.54171 39.4583 0.083374 31.1249 0.083374ZM31.3333 4.25004C37.1666 4.25004 41.7499 8.83337 41.7499 14.6667C41.7499 20.5 37.1666 25.0834 31.3333 25.0834C25.4999 25.0834 20.9166 20.5 20.9166 14.6667C20.9166 8.83337 25.4999 4.25004 31.3333 4.25004ZM29.2499 6.33337V16.75L36.7499 21.3334L38.4166 18.8334L32.3749 15.2917V6.33337H29.2499ZM7.58325 24.6667C10.4999 30.5 15.4999 35.5 21.3333 38.4167L25.9166 33.8334C26.5416 33.2084 27.3749 33 27.9999 33.4167C30.2916 34.25 32.7916 34.6667 35.4999 34.6667C36.5416 34.6667 37.5833 35.7084 37.5833 36.75V43.8334C37.5833 44.875 36.5416 45.9167 35.4999 45.9167C15.9166 45.9167 0.083252 30.0834 0.083252 10.5C0.083252 9.25004 1.12492 8.41671 2.16659 8.41671H9.45825C10.7083 8.41671 11.5416 9.25004 11.5416 10.5C11.5416 13 11.9583 15.5 12.7916 18C12.9999 18.8334 12.7916 19.4584 12.3749 20.0834L7.58325 24.6667Z" fill="#0A9A67"/>
</svg>
