<svg width="30" height="30" fill="none" xmlns="http://www.w3.org/2000/svg"><path d="M15 .857a14.143 14.143 0 1 1 0 28.286A14.143 14.143 0 0 1 15 .857ZM12.171 19.71a3.61 3.61 0 0 1 0 2.121c0 .07-.056.142-.084.24-.029 0-.057.1-.1.17-.155.34-.381.665-.65.948-.82.905-1.994 1.244-2.46.962-.538-.312-.241-1.584.692-2.589 1.018-1.075 2.49-1.782 2.49-1.782l.113-.07Zm11.697-12.8c-.637-2.517-4.809-3.337-8.74-1.937-2.348.834-4.894 2.135-6.719 3.847-2.163 2.036-2.517 3.804-2.376 4.54.481 2.602 4.074 4.313 5.545 5.572v.014c-.425.212-3.593 1.81-4.357 3.45-.763 1.726.142 2.97.708 3.14 1.895.51 3.804-.41 4.822-1.951.99-1.471.92-3.38.481-4.342a6.136 6.136 0 0 1 2.164-.113c2.49.297 2.97 1.838 2.871 2.489-.085.65-.608 1.004-.778 1.117-.17.1-.226.142-.212.226.014.114.099.114.24.085.213-.042 1.316-.523 1.358-1.725.057-1.527-1.4-3.225-3.974-3.182-1.06.028-1.725.127-2.206.31l-.113-.126c-1.599-1.698-4.54-2.9-4.413-5.19.042-.835.325-3.013 5.657-5.672 4.356-2.178 7.85-1.584 8.458-.24.862 1.88-1.867 5.402-6.393 5.911-1.725.198-2.645-.48-2.871-.721-.24-.24-.269-.283-.354-.24-.155.098-.056.325 0 .466.128.354.694.948 1.627 1.287.834.269 2.87.425 5.318-.523 2.743-1.06 4.893-4.017 4.257-6.492Z" fill="#0A9A67"/></svg>