<svg width="30" height="30" viewBox="0 0 30 30" fill="none" xmlns="http://www.w3.org/2000/svg">
<path d="M15 0.857178C16.8573 0.857178 18.6964 1.22299 20.4123 1.93374C22.1282 2.64448 23.6873 3.68624 25.0005 4.99952C26.3138 6.31281 27.3556 7.87191 28.0663 9.5878C28.7771 11.3037 29.1429 13.1428 29.1429 15C29.1429 18.751 27.6528 22.3482 25.0005 25.0005C22.3482 27.6528 18.751 29.1429 15 29.1429C13.1428 29.1429 11.3037 28.7771 9.5878 28.0663C7.87191 27.3556 6.31281 26.3138 4.99953 25.0005C2.34722 22.3482 0.857178 18.751 0.857178 15C0.857178 11.2491 2.34722 7.65182 4.99953 4.99952C7.65183 2.34722 11.2491 0.857178 15 0.857178ZM12.1715 19.7096C12.3978 20.4733 12.3695 21.1805 12.1715 21.831C12.1715 21.9017 12.1149 21.9725 12.0866 22.0715C12.0583 22.0715 12.03 22.1705 11.9876 22.2412C11.832 22.5806 11.6058 22.9059 11.337 23.1887C10.5168 24.0939 9.34289 24.4333 8.87618 24.1505C8.33875 23.8393 8.63575 22.5665 9.56918 21.5623C10.5875 20.4875 12.0583 19.7803 12.0583 19.7803L12.1715 19.7096ZM23.8676 6.91032C23.2312 4.39289 19.059 3.57261 15.1273 4.97275C12.7796 5.80718 10.2339 7.10832 8.40946 8.81961C6.24561 10.8562 5.89204 12.624 6.03346 13.3595C6.51432 15.9617 10.1066 17.673 11.5775 18.9317V18.9459C11.1532 19.158 7.98518 20.7562 7.22146 22.3967C6.45775 24.1222 7.36289 25.3667 7.92861 25.5365C9.82375 26.0456 11.733 25.1263 12.7513 23.5847C13.7413 22.1139 13.6706 20.2046 13.2322 19.2429C13.8262 19.1015 14.5192 19.0307 15.396 19.1297C17.8852 19.4267 18.366 20.9683 18.267 21.6189C18.1822 22.2695 17.6589 22.623 17.4892 22.7362C17.3195 22.8352 17.2629 22.8776 17.277 22.9625C17.2912 23.0756 17.376 23.0756 17.5175 23.0473C17.7296 23.0049 18.8328 22.524 18.8752 21.3219C18.9318 19.7945 17.475 18.0973 14.901 18.1397C13.8403 18.168 13.1756 18.267 12.6948 18.4509L12.5816 18.3236C10.9835 16.6265 8.04175 15.4243 8.16904 13.1332C8.21146 12.2987 8.49432 10.1207 13.8262 7.46189C18.1822 5.28389 21.6755 5.87789 22.2836 7.22146C23.1463 9.10246 20.4168 12.624 15.891 13.1332C14.1656 13.3312 13.2463 12.6523 13.02 12.4119C12.7796 12.1715 12.7513 12.129 12.6665 12.1715C12.5109 12.2705 12.6099 12.4967 12.6665 12.6382C12.7938 12.9917 13.3595 13.5857 14.2929 13.9252C15.1273 14.1939 17.1639 14.3495 19.6106 13.4019C22.3543 12.3412 24.504 9.38532 23.8676 6.91032Z" fill="#0A9A67"/>
</svg>
