<svg width="46" height="33" fill="none" xmlns="http://www.w3.org/2000/svg"><path d="M27.167 10.281c0-.312.113-.634.34-.964.224-.33.476-.546.753-.65a19.337 19.337 0 0 1 3.021-.782 18.683 18.683 0 0 1 3.177-.26c.695 0 1.38.043 2.059.13.676.087 1.344.2 2.004.339.312.07.581.243.806.52.226.278.34.59.34.938 0 .59-.191 1.024-.573 1.302-.382.278-.868.347-1.459.209a13.754 13.754 0 0 0-1.535-.236 17.281 17.281 0 0 0-1.642-.077c-.902 0-1.788.087-2.656.26-.868.174-1.701.4-2.5.678-.625.243-1.137.225-1.535-.053-.4-.277-.6-.729-.6-1.354Zm0 11.459c0-.313.113-.634.34-.965.224-.33.476-.546.753-.65a19.339 19.339 0 0 1 3.021-.781 18.684 18.684 0 0 1 3.177-.26c.695 0 1.38.042 2.059.128.676.088 1.344.201 2.004.34.312.07.581.243.806.521.226.278.34.59.34.938 0 .59-.191 1.024-.573 1.302-.382.277-.868.347-1.459.208a13.708 13.708 0 0 0-1.535-.236 17.281 17.281 0 0 0-1.642-.077c-.902 0-1.788.079-2.656.236-.868.155-1.701.372-2.5.65-.625.243-1.137.234-1.535-.027-.4-.26-.6-.702-.6-1.327Zm0-5.73c0-.312.113-.634.34-.964.224-.33.476-.546.753-.65a19.34 19.34 0 0 1 3.021-.781 18.684 18.684 0 0 1 3.177-.26c.695 0 1.38.042 2.059.128.676.088 1.344.201 2.004.34.312.07.581.243.806.52.226.279.34.591.34.938 0 .59-.191 1.025-.573 1.302-.382.278-.868.348-1.459.209a13.731 13.731 0 0 0-1.535-.236 17.281 17.281 0 0 0-1.642-.077c-.902 0-1.788.087-2.656.26-.868.174-1.701.4-2.5.678-.625.243-1.137.225-1.535-.052-.4-.278-.6-.73-.6-1.354Zm-2.084 11.51a22.94 22.94 0 0 1 4.61-1.64 20.705 20.705 0 0 1 4.765-.547c1.25 0 2.475.105 3.673.313 1.197.208 2.404.52 3.619.937V5.958a18.056 18.056 0 0 0-3.567-1.093 19.113 19.113 0 0 0-8.569.26A17.843 17.843 0 0 0 25.084 7v20.52ZM23 32.574c-.486 0-.946-.06-1.38-.181a5.86 5.86 0 0 1-1.224-.496 17.015 17.015 0 0 0-4.271-1.796c-1.493-.4-3.02-.6-4.583-.6-1.459 0-2.89.191-4.296.573-1.407.382-2.753.92-4.038 1.614-.729.382-1.432.365-2.108-.052C.422 31.22.083 30.611.083 29.813V4.709c0-.382.096-.746.288-1.093.19-.348.476-.608.858-.782a21.739 21.739 0 0 1 5-1.875 22.684 22.684 0 0 1 5.313-.625c2.014 0 3.984.26 5.912.782A22.463 22.463 0 0 1 23 3.458a22.458 22.458 0 0 1 5.548-2.343 22.547 22.547 0 0 1 5.91-.782c1.806 0 3.577.209 5.313.625a21.74 21.74 0 0 1 5 1.875c.382.174.669.434.86.782.19.347.286.711.286 1.093v25.104c0 .8-.339 1.407-1.015 1.823-.678.417-1.381.434-2.11.052a18.847 18.847 0 0 0-4.038-1.614 16.308 16.308 0 0 0-4.296-.573c-1.562 0-3.09.2-4.583.6a17.016 17.016 0 0 0-4.27 1.796c-.383.208-.79.373-1.224.496-.435.12-.895.181-1.381.181Z" fill="#0A9A67"/></svg>