<svg width="46" height="46" fill="none" xmlns="http://www.w3.org/2000/svg"><path d="M31.125.083C23.208.292 16.75 6.75 16.75 14.667c0 8.125 6.458 14.583 14.583 14.583s14.584-6.458 14.584-14.583S39.458.083 31.125.083Zm.208 4.167c5.834 0 10.417 4.583 10.417 10.417 0 5.833-4.583 10.416-10.417 10.416-5.833 0-10.416-4.583-10.416-10.416 0-5.834 4.583-10.417 10.416-10.417ZM29.25 6.333V16.75l7.5 4.583 1.667-2.5-6.042-3.541V6.333H29.25ZM7.583 24.667C10.5 30.5 15.5 35.5 21.333 38.417l4.584-4.584c.625-.625 1.458-.833 2.083-.416 2.292.833 4.792 1.25 7.5 1.25 1.042 0 2.083 1.041 2.083 2.083v7.083c0 1.042-1.041 2.084-2.083 2.084C15.917 45.917.083 30.083.083 10.5c0-1.25 1.042-2.083 2.084-2.083h7.291c1.25 0 2.084.833 2.084 2.083 0 2.5.416 5 1.25 7.5.208.833 0 1.458-.417 2.083l-4.792 4.584Z" fill="#0A9A67"/></svg>